<svg id="_x31__x2C_5" enable-background="new 0 0 36 36" height="512" viewBox="0 0 36 36" width="512" xmlns="http://www.w3.org/2000/svg"><path d="m8.377 4.167c6.917 0 11.667-3.583 15-3.583s10.333 1.916 10.333 17.249-9.417 17.583-13.083 17.583c-17.167.001-24.5-31.249-12.25-31.249z" fill="#efefef"/><g fill="#a4afc1"><path d="m30.856 2.467h2v1h-2z" transform="matrix(.707 -.707 .707 .707 7.233 23.395)"/><path d="m31.533 6.033h1v2h-1z" transform="matrix(.707 -.707 .707 .707 4.412 24.716)"/><path d="m27.467 1.967h1v2h-1z" transform="matrix(.707 -.707 .707 .707 6.097 20.648)"/></g><path d="m28.25 25.25h-20.5c-.552 0-1-.448-1-1v-12.5c0-.552.448-1 1-1h20.5c.552 0 1 .448 1 1v12.5c0 .552-.448 1-1 1z" fill="#f3f3f1"/><circle cx="24.5" cy="11.5" fill="#2fdf84" r="4.75"/><path d="m22 11.5c0-2.234 1.547-4.094 3.625-4.601-.362-.089-.735-.149-1.125-.149-2.623 0-4.75 2.127-4.75 4.75s2.127 4.75 4.75 4.75c.39 0 .763-.06 1.125-.149-2.078-.507-3.625-2.367-3.625-4.601z" fill="#00b871"/><path d="m9 24.25v-12.5c0-.552.448-1 1-1h-2.25c-.552 0-1 .448-1 1v12.5c0 .552.448 1 1 1h2.25c-.552 0-1-.448-1-1z" fill="#d5dbe1"/><path d="m28.25 26h-20.5c-.965 0-1.75-.785-1.75-1.75v-12.5c0-.965.785-1.75 1.75-1.75h9.04v1.5h-9.04c-.136 0-.25.114-.25.25v12.5c0 .136.114.25.25.25h20.5c.136 0 .25-.114.25-.25v-6.63h1.5v6.63c0 .965-.785 1.75-1.75 1.75z"/><path d="m17.25 25.25h1.5v4h-1.5z"/><path d="m24.5 17c-3.033 0-5.5-2.468-5.5-5.5s2.467-5.5 5.5-5.5 5.5 2.468 5.5 5.5-2.467 5.5-5.5 5.5zm0-9.5c-2.206 0-4 1.794-4 4s1.794 4 4 4 4-1.794 4-4-1.794-4-4-4z"/><path d="m24.023 13.5c-.196 0-.385-.077-.525-.215l-1.273-1.25 1.051-1.07.711.698 1.703-1.912 1.12.998-2.227 2.5c-.137.153-.33.244-.535.251-.008 0-.017 0-.025 0z"/><path d="m10 19.5h16v1.5h-16z"/><path d="m10 15.5h8v1.5h-8z"/><path d="m13 28.5h10v1.5h-10z"/></svg>